<svg xmlns="http://www.w3.org/2000/svg" viewBox="0 0 1200 700" preserveAspectRatio="xMidYMid meet">

<style>
  .sea{fill:#cfdde7}
  .grat{fill:none;stroke:#a7b5bf;stroke-width:0.7;opacity:0.35}
  .country{fill:#f3efe7;stroke:#a0a9b2;stroke-width:1}
  .russia{fill:#e4ddd2;stroke:#596879;stroke-width:1.8}
</style>

<rect class="sea" width="1200" height="700"/>
<path class="grat" d="M 11.07 537.30 L 21.46 520.98 L 31.85 504.66 L 42.24 488.33 L 52.63 472.00 L 63.02 455.67 L 73.42 439.34 L 83.81 423.00 L 94.21 406.66 L 104.61 390.31 L 115.02 373.97 L 125.42 357.62 L 135.83 341.27 L 146.24 324.91 L 156.65 308.56 L 167.06 292.20 L 177.47 275.83 L 187.89 259.47 L 198.30 243.10 L 208.72 226.73 L 219.14 210.36 L 229.56 193.98 L 239.99 177.61 L 250.41 161.22 L 260.85 144.84 L 271.28 128.45 L 281.72 112.06 L 292.16 95.66 L 302.61 79.27 L 313.05 62.86 L 323.50 46.46 L 333.96 30.05 M 31.26 590.67 L 40.95 574.25 L 50.64 557.84 L 60.34 541.41 L 70.03 524.99 L 79.74 508.57 L 89.44 492.14 L 99.15 475.70 L 108.86 459.27 L 118.57 442.83 L 128.29 426.39 L 138.01 409.95 L 147.74 393.50 L 157.46 377.05 L 167.20 360.60 L 176.93 344.15 L 186.67 327.69 L 196.41 311.23 L 206.15 294.76 L 215.90 278.30 L 225.65 261.83 L 235.41 245.35 L 245.17 228.88 L 254.93 212.40 L 264.69 195.92 L 274.46 179.43 L 284.23 162.94 L 294.00 146.45 L 303.78 129.96 L 313.56 113.46 L 323.35 96.96 L 333.14 80.45 M 53.74 645.42 L 62.57 628.93 L 71.40 612.43 L 80.24 595.94 L 89.08 579.43 L 97.92 562.93 L 106.77 546.42 L 115.62 529.91 L 124.48 513.39 L 133.34 496.87 L 142.20 480.35 L 151.07 463.82 L 159.94 447.29 L 168.82 430.76 L 177.70 414.22 L 186.59 397.68 L 195.48 381.14 L 204.37 364.60 L 213.27 348.05 L 222.17 331.49 L 231.08 314.94 L 239.99 298.38 L 248.90 281.82 L 257.82 265.25 L 266.74 248.68 L 275.67 232.11 L 284.60 215.54 L 293.53 198.96 L 302.47 182.38 L 311.42 165.80 L 320.36 149.21 L 329.31 132.62 M 78.72 700.00 L 86.50 683.53 L 94.28 667.05 L 102.07 650.57 L 109.85 634.08 L 117.65 617.59 L 125.44 601.10 L 133.24 584.60 L 141.04 568.10 L 148.85 551.60 L 156.66 535.09 L 164.47 518.58 L 172.29 502.06 L 180.11 485.54 L 187.93 469.02 L 195.76 452.50 L 203.59 435.97 L 211.43 419.44 L 219.27 402.90 L 227.11 386.36 L 234.96 369.82 L 242.81 353.28 L 250.66 336.73 L 258.52 320.18 L 266.38 303.62 L 274.24 287.06 L 282.11 270.50 L 289.99 253.94 L 297.86 237.37 L 305.74 220.80 L 313.63 204.23 L 321.52 187.65 M 731.10 700.00 L 739.01 683.44 L 746.91 666.88 L 754.81 650.31 L 762.71 633.74 L 770.61 617.16 L 778.50 600.58 L 786.39 584.00 L 794.28 567.42 L 802.17 550.83 L 810.05 534.24 L 817.93 517.64 L 825.81 501.04 L 833.68 484.44 L 841.55 467.83 L 849.42 451.23 L 857.28 434.61 L 865.14 418.00 L 873.00 401.38 L 880.86 384.76 L 888.71 368.13 L 896.56 351.50 L 904.40 334.87 L 912.24 318.24 L 920.08 301.60 L 927.92 284.96 L 935.75 268.31 L 943.58 251.66 L 951.40 235.01 L 959.22 218.35 L 967.04 201.70 L 974.85 185.03"/>
<path class="grat" d="M 164.92 671.85 L 192.70 682.50 L 220.58 692.52 L 248.54 701.91 L 276.56 710.67 L 304.62 718.80 L 332.72 726.30 L 360.83 733.17 L 388.95 739.40 L 417.06 744.99 L 445.14 749.95 L 473.19 754.28 L 501.19 757.98 L 529.12 761.04 L 556.97 763.48 L 584.73 765.29 L 612.38 766.48 L 639.90 767.05 L 667.29 766.99 L 694.53 766.33 L 721.60 765.05 L 748.50 763.17 L 775.21 760.69 L 801.72 757.61 L 828.02 753.94 L 854.09 749.69 L 879.93 744.85 L 905.53 739.44 L 930.88 733.47 L 955.96 726.93 M 135.67 612.55 L 162.45 622.77 L 189.32 632.38 L 216.26 641.39 L 243.27 649.80 L 270.32 657.61 L 297.40 664.81 L 324.50 671.41 L 351.61 677.41 L 378.71 682.81 L 405.79 687.60 L 432.84 691.80 L 459.85 695.39 L 486.80 698.38 L 513.69 700.77 L 540.49 702.56 L 567.20 703.75 L 593.81 704.35 L 620.29 704.35 L 646.64 703.75 L 672.85 702.56 L 698.90 700.77 L 724.79 698.39 L 750.50 695.42 L 776.03 691.86 L 801.36 687.72 L 826.49 683.00 L 851.40 677.70 L 876.08 671.84 L 900.52 665.42 M 108.66 553.72 L 134.43 563.51 L 160.28 572.72 L 186.20 581.36 L 212.19 589.43 L 238.22 596.92 L 264.28 603.84 L 290.36 610.18 L 316.45 615.95 L 342.53 621.14 L 368.59 625.76 L 394.62 629.80 L 420.61 633.27 L 446.54 636.17 L 472.40 638.49 L 498.19 640.24 L 523.89 641.41 L 549.50 642.01 L 575.00 642.04 L 600.39 641.49 L 625.65 640.37 L 650.78 638.68 L 675.76 636.42 L 700.58 633.59 L 725.24 630.19 L 749.72 626.22 L 774.01 621.69 L 798.12 616.60 L 822.01 610.95 L 845.69 604.73 M 83.72 495.35 L 108.46 504.72 L 133.28 513.55 L 158.16 521.84 L 183.11 529.59 L 208.10 536.80 L 233.12 543.47 L 258.17 549.61 L 283.22 555.21 L 308.27 560.28 L 333.31 564.81 L 358.33 568.81 L 383.31 572.27 L 408.25 575.20 L 433.14 577.59 L 457.97 579.45 L 482.72 580.78 L 507.39 581.58 L 531.96 581.84 L 556.43 581.58 L 580.78 580.79 L 605.00 579.48 L 629.08 577.64 L 653.02 575.28 L 676.80 572.41 L 700.42 569.01 L 723.86 565.11 L 747.12 560.70 L 770.18 555.79 L 793.03 550.37 M 60.70 437.37 L 84.42 446.32 L 108.21 454.76 L 132.07 462.70 L 155.99 470.14 L 179.95 477.07 L 203.94 483.50 L 227.96 489.43 L 251.99 494.86 L 276.02 499.78 L 300.04 504.21 L 324.04 508.13 L 348.01 511.55 L 371.94 514.48 L 395.82 516.90 L 419.63 518.82 L 443.37 520.24 L 467.02 521.16 L 490.58 521.59 L 514.03 521.51 L 537.36 520.94 L 560.56 519.87 L 583.62 518.30 L 606.53 516.24 L 629.28 513.69 L 651.86 510.64 L 674.26 507.10 L 696.46 503.08 L 718.46 498.56 L 740.25 493.56 M 39.46 379.73 L 62.13 388.26 L 84.86 396.33 L 107.66 403.94 L 130.52 411.08 L 153.44 417.76 L 176.40 423.98 L 199.41 429.73 L 222.45 435.03 L 245.51 439.87 L 268.60 444.24 L 291.70 448.16 L 314.81 451.62 L 337.91 454.62 L 361.00 457.15 L 384.08 459.23 L 407.14 460.85 L 430.16 462.01 L 453.15 462.71 L 476.09 462.96 L 498.99 462.76 L 521.82 462.10 L 544.59 461.00 L 567.28 459.44 L 589.89 457.44 L 612.40 454.99 L 634.81 452.09 L 657.10 448.75 L 679.28 444.97 L 701.32 440.75 M 19.91 322.38 L 41.52 330.50 L 63.20 338.18 L 84.94 345.45 L 106.75 352.29 L 128.61 358.71 L 150.53 364.71 L 172.51 370.29 L 194.54 375.45 L 216.61 380.18 L 238.72 384.49 L 260.86 388.38 L 283.03 391.84 L 305.22 394.88 L 327.42 397.49 L 349.63 399.67 L 371.84 401.42 L 394.04 402.75 L 416.24 403.65 L 438.41 404.12 L 460.56 404.16 L 482.68 403.77 L 504.76 402.95 L 526.79 401.70 L 548.77 400.01 L 570.69 397.89 L 592.54 395.33 L 614.30 392.33 L 635.98 388.90 L 657.57 385.02 M 2.00 265.25 L 20.00 272.17 L 38.08 278.69 L 56.24 284.83 L 74.47 290.57 L 92.77 295.93 L 111.12 300.89 L 129.53 305.46 L 147.98 309.64 L 166.47 313.43 L 185.00 316.82 L 203.55 319.82 L 222.11 322.42 L 240.69 324.63 L 259.28 326.44 L 277.86 327.85 L 296.44 328.87 L 315.00 329.48 L 333.55 329.70 L 352.06 329.52 L 370.54 328.94 L 388.98 327.95 L 407.37 326.56 L 425.70 324.77 L 443.97 322.58 L 462.16 319.98 L 480.28 316.97 L 498.30 313.56 L 516.23 309.74 L 534.05 305.50 M 2.00 208.35 L 19.58 213.30 L 37.24 217.90 L 54.99 222.15 L 72.82 226.06 L 90.72 229.62 L 108.69 232.83 L 126.72 235.69 L 144.81 238.21 L 162.95 240.38 L 181.13 242.21 L 199.35 243.68 L 217.61 244.82 L 235.89 245.60 L 254.18 246.04 L 272.49 246.14 L 290.80 245.89 L 309.09 245.30 L 327.37 244.36 L 345.63 243.08 L 363.85 241.45 L 382.03 239.49 L 400.16 237.18 L 418.23 234.53 L 436.23 231.54 L 454.16 228.21 L 472.00 224.54 L 489.74 220.52 L 507.38 216.17 L 524.91 211.47 M 2.00 151.66 L 19.17 154.86 L 36.43 157.72 L 53.77 160.29 L 71.21 162.57 L 88.73 164.55 L 106.32 166.23 L 123.98 167.62 L 141.70 168.70 L 159.47 169.48 L 177.27 169.97 L 195.11 170.16 L 212.97 170.05 L 230.84 169.64 L 248.71 168.94 L 266.57 167.94 L 284.41 166.65 L 302.22 165.06 L 319.99 163.18 L 337.71 161.00 L 355.37 158.54 L 372.96 155.79 L 390.47 152.74 L 407.89 149.42 L 425.22 145.80 L 442.43 141.91 L 459.53 137.74 L 476.51 133.29 L 493.35 128.57 L 510.05 123.58 M 2.00 95.17 L 18.77 96.84 L 35.63 98.20 L 52.58 99.30 L 69.62 100.14 L 86.74 100.71 L 103.92 101.01 L 121.16 101.04 L 138.45 100.80 L 155.79 100.28 L 173.16 99.49 L 190.55 98.43 L 207.97 97.09 L 225.39 95.47 L 242.82 93.57 L 260.24 91.40 L 277.65 88.95 L 295.04 86.22 L 312.39 83.21 L 329.71 79.92 L 346.98 76.36 L 364.19 72.52 L 381.34 68.40 L 398.40 64.00 L 415.39 59.33 L 432.28 54.38 L 449.07 49.15 L 465.76 43.66 L 482.33 37.88 L 498.77 31.84"/>
<path class="country" d="M 700.16 250.89 L 703.18 251.36 L 707.50 256.79 L 704.20 260.27 L 702.97 266.73 L 708.89 269.75 L 709.64 278.67 L 712.29 280.45 L 706.99 282.79 L 704.72 287.79 L 712.64 291.87 L 716.14 291.87 L 717.15 286.92 L 721.14 284.97 L 721.95 280.65 L 727.02 278.74 L 727.39 282.17 L 731.63 282.64 L 733.59 280.17 L 736.92 280.20 L 738.46 282.98 L 740.98 281.33 L 744.10 282.40 L 744.44 286.75 L 747.79 288.36 L 749.00 292.18 L 752.35 293.49 L 753.39 297.81 L 758.35 300.46 L 762.40 299.89 L 761.09 303.98 L 756.39 306.79 L 756.52 309.07 L 762.47 311.89 L 765.76 311.65 L 767.84 313.69 L 774.96 314.99 L 775.46 319.88 L 777.94 321.46 L 777.00 326.02 L 773.24 328.80 L 770.12 329.17 L 769.07 331.48 L 764.88 332.15 L 765.05 336.74 L 761.23 339.32 L 760.39 343.95 L 755.80 348.50 L 756.24 354.12 L 750.40 357.88 L 745.54 364.61 L 749.44 369.10 L 754.34 371.05 L 754.37 375.04 L 752.22 379.46 L 746.98 381.91 L 747.51 388.10 L 742.44 394.16 L 736.15 396.58 L 734.04 401.11 L 728.13 402.72 L 728.06 408.57 L 725.02 413.00 L 719.61 414.38 L 714.71 412.13 L 711.42 413.27 L 710.28 419.59 L 705.65 421.87 L 703.47 420.16 L 699.41 420.66 L 698.27 418.24 L 692.93 417.10 L 691.01 412.07 L 686.24 408.70 L 678.88 409.91 L 673.48 408.44 L 671.36 410.52 L 666.86 409.34 L 660.28 412.66 L 657.53 417.39 L 651.37 420.59 L 650.33 425.72 L 646.31 430.19 L 638.96 432.20 L 636.07 430.59 L 631.74 432.13 L 623.35 429.24 L 621.87 424.58 L 617.57 423.24 L 609.99 425.59 L 604.12 425.25 L 599.65 426.79 L 596.93 431.05 L 588.84 432.26 L 584.68 434.77 L 579.74 434.50 L 574.67 437.66 L 572.73 442.90 L 565.95 443.57 L 561.65 446.49 L 553.91 447.19 L 548.74 450.42 L 540.92 449.24 L 537.57 451.02 L 534.55 449.64 L 531.86 451.89 L 527.16 452.22 L 524.54 456.01 L 519.37 455.84 L 518.43 460.98 L 509.80 462.22 L 504.33 466.25 L 500.67 473.11 L 493.19 476.58 L 493.29 479.80 L 488.05 485.31 L 488.42 490.11 L 483.85 491.89 L 483.48 496.35 L 479.06 497.16 L 473.26 500.93 L 466.54 502.40 L 461.57 500.96 L 456.80 504.79 L 451.36 504.49 L 450.18 508.95 L 445.44 511.67 L 438.93 512.44 L 431.28 511.57 L 429.87 508.41 L 425.94 507.30 L 425.24 501.52 L 419.74 499.84 L 417.29 496.52 L 411.52 497.26 L 408.47 494.10 L 402.61 496.42 L 399.32 495.18 L 397.71 489.47 L 390.36 488.36 L 389.15 484.33 L 393.18 480.67 L 391.80 476.28 L 395.73 473.90 L 398.65 467.08 L 395.56 460.21 L 386.64 455.95 L 387.04 449.67 L 383.95 443.98 L 384.35 440.12 L 379.52 436.93 L 379.46 431.42 L 374.79 428.76 L 372.67 423.29 L 368.34 420.73 L 363.57 413.24 L 359.54 410.62 L 354.74 412.60 L 347.18 411.62 L 337.90 406.48 L 336.25 402.59 L 329.23 397.89 L 326.18 393.06 L 319.66 390.10 L 319.46 385.33 L 315.63 382.95 L 314.79 376.46 L 317.31 371.49 L 319.59 371.09 L 319.79 366.16 L 324.92 361.66 L 329.33 353.74 L 334.13 349.74 L 337.97 351.66 L 341.22 349.30 L 343.57 341.35 L 348.00 336.21 L 355.45 331.05 L 355.72 327.56 L 364.21 320.01 L 367.46 312.15 L 365.25 306.78 L 368.21 305.44 L 371.23 297.32 L 379.92 288.53 L 384.35 286.72 L 387.13 278.43 L 392.40 274.30 L 401.22 273.43 L 402.87 271.11 L 412.99 270.34 L 416.38 266.48 L 422.08 265.84 L 424.23 260.80 L 429.13 257.98 L 436.62 257.51 L 441.66 253.08 L 449.28 250.49 L 453.65 251.70 L 457.88 247.40 L 465.33 247.30 L 468.75 244.24 L 472.81 244.61 L 478.81 241.42 L 482.27 241.52 L 486.00 239.51 L 488.52 236.16 L 495.97 237.64 L 499.49 236.49 L 505.39 238.30 L 509.59 235.78 L 515.13 236.08 L 522.11 232.42 L 527.48 232.65 L 532.11 229.87 L 537.74 230.61 L 540.12 227.29 L 548.48 224.87 L 554.52 220.57 L 562.47 220.97 L 568.68 217.65 L 572.88 210.47 L 578.35 205.57 L 586.21 202.65 L 590.81 194.40 L 594.87 194.87 L 598.56 192.22 L 605.95 193.80 L 608.87 191.68 L 616.05 193.86 L 620.99 191.44 L 627.85 192.49 L 631.48 189.64 L 635.71 189.84 L 641.08 186.51 L 647.80 185.84 L 651.73 182.18 L 654.95 183.92 L 660.99 182.61 L 665.32 184.86 L 670.06 183.72 L 675.53 186.14 L 682.44 186.38 L 684.79 188.53 L 689.89 188.29 L 695.33 190.88 L 699.09 194.64 L 698.38 200.35 L 701.37 206.81 L 699.49 214.77 L 699.89 220.78 L 697.91 223.60 L 699.76 227.63 L 698.01 232.56 L 699.55 240.18 L 697.34 246.26 Z"/>
<path class="country" d="M 348.73 529.12 L 372.95 526.94 L 388.26 531.47 L 393.06 538.11 L 404.72 544.65 L 415.80 546.43 L 429.19 544.18 L 447.18 545.92 L 460.67 543.54 L 476.89 543.84 L 487.20 548.54 L 498.51 556.64 L 500.42 566.86 L 509.84 573.20 L 519.83 574.91 L 526.91 581.08 L 530.10 588.57 L 538.80 597.33 L 537.76 607.15 L 528.41 611.95 L 513.30 612.08 L 503.45 608.22 L 491.26 609.66 L 476.85 605.43 L 460.87 602.24 L 453.82 597.77 L 438.58 595.82 L 426.45 590.48 L 410.77 588.40 L 398.34 583.26 L 391.43 575.87 L 379.77 572.48 L 367.78 564.92 L 356.97 555.40 L 348.94 543.54 Z"/>
<path class="country" d="M 230.73 367.77 L 249.09 361.22 L 269.30 359.73 L 284.64 365.56 L 295.36 375.46 L 296.53 386.94 L 284.15 392.74 L 263.17 394.47 L 245.43 392.12 L 231.18 382.81 L 226.24 374.29 Z"/>
<path class="country" d="M 279.72 381.05 L 297.78 379.60 L 312.46 385.97 L 317.26 397.29 L 308.16 405.38 L 288.87 407.29 L 273.83 404.17 L 266.49 393.55 Z"/>
<path class="country" d="M 319.21 392.51 L 337.63 391.80 L 351.95 399.29 L 355.53 411.48 L 345.47 419.47 L 326.48 420.04 L 313.23 413.30 L 310.71 401.55 Z"/>
<path class="country" d="M 292.52 329.97 L 314.86 326.35 L 333.11 332.89 L 340.92 345.91 L 335.72 359.24 L 318.79 366.45 L 296.73 367.06 L 281.95 358.87 L 277.48 343.53 Z"/>
<path class="country" d="M 651.24 201.42 L 667.23 197.69 L 685.28 198.20 L 695.76 203.74 L 695.47 214.19 L 681.18 218.69 L 663.57 218.62 L 651.31 213.88 L 646.60 206.32 Z"/>
<path class="country" d="M 723.29 163.24 L 744.68 162.00 L 761.06 170.31 L 764.14 183.19 L 749.38 191.20 L 730.58 191.71 L 718.39 184.50 L 716.56 171.05 Z"/>
<path class="country" d="M 787.48 144.95 L 807.58 145.89 L 824.10 155.84 L 825.67 170.39 L 809.01 178.98 L 789.30 178.61 L 776.91 169.38 L 775.82 156.57 Z"/>
<path class="country" d="M 848.30 161.56 L 871.49 164.11 L 889.46 176.74 L 889.71 193.57 L 871.54 202.50 L 848.03 199.68 L 833.77 187.23 L 833.85 173.44 Z"/>
<path class="country" d="M 255.35 515.83 L 271.92 513.61 L 286.17 519.26 L 291.88 530.58 L 284.17 538.11 L 267.26 539.08 L 254.50 533.11 L 249.80 523.26 Z"/>
</svg>
